<svg width="135" height="19" viewBox="0 0 135 19" fill="none" xmlns="http://www.w3.org/2000/svg">
<path d="M8.24 18.288C6.544 18.288 5.088 17.928 3.872 17.208C2.656 16.472 1.72 15.456 1.064 14.16C0.408 12.848 0.08 11.336 0.08 9.624C0.08 7.912 0.408 6.4 1.064 5.088C1.72 3.776 2.656 2.752 3.872 2.016C5.088 1.28 6.544 0.912 8.24 0.912C10.256 0.912 11.904 1.416 13.184 2.424C14.48 3.416 15.288 4.816 15.608 6.624H12.224C12.016 5.712 11.568 5 10.88 4.488C10.208 3.96 9.312 3.696 8.192 3.696C6.64 3.696 5.424 4.224 4.544 5.28C3.664 6.336 3.224 7.784 3.224 9.624C3.224 11.464 3.664 12.912 4.544 13.968C5.424 15.008 6.64 15.528 8.192 15.528C9.312 15.528 10.208 15.288 10.88 14.808C11.568 14.312 12.016 13.632 12.224 12.768H15.608C15.288 14.496 14.48 15.848 13.184 16.824C11.904 17.8 10.256 18.288 8.24 18.288ZM23.9773 18.288C22.8253 18.288 21.7853 18.024 20.8573 17.496C19.9453 16.968 19.2173 16.24 18.6733 15.312C18.1453 14.368 17.8813 13.28 17.8813 12.048C17.8813 10.816 18.1533 9.736 18.6973 8.808C19.2413 7.864 19.9693 7.128 20.8813 6.6C21.8093 6.072 22.8493 5.808 24.0013 5.808C25.1373 5.808 26.1613 6.072 27.0733 6.6C28.0013 7.128 28.7293 7.864 29.2573 8.808C29.8013 9.736 30.0733 10.816 30.0733 12.048C30.0733 13.28 29.8013 14.368 29.2573 15.312C28.7293 16.24 28.0013 16.968 27.0733 17.496C26.1453 18.024 25.1133 18.288 23.9773 18.288ZM23.9773 15.624C24.7773 15.624 25.4733 15.328 26.0653 14.736C26.6573 14.128 26.9533 13.232 26.9533 12.048C26.9533 10.864 26.6573 9.976 26.0653 9.384C25.4733 8.776 24.7853 8.472 24.0013 8.472C23.1853 8.472 22.4813 8.776 21.8893 9.384C21.3133 9.976 21.0253 10.864 21.0253 12.048C21.0253 13.232 21.3133 14.128 21.8893 14.736C22.4813 15.328 23.1773 15.624 23.9773 15.624ZM37.294 18.288C35.806 18.288 34.654 17.824 33.838 16.896C33.038 15.968 32.638 14.608 32.638 12.816V6.096H35.686V12.528C35.686 13.552 35.894 14.336 36.31 14.88C36.726 15.424 37.382 15.696 38.278 15.696C39.126 15.696 39.822 15.392 40.366 14.784C40.926 14.176 41.206 13.328 41.206 12.24V6.096H44.278V18H41.566L41.326 15.984C40.958 16.688 40.422 17.248 39.718 17.664C39.03 18.08 38.222 18.288 37.294 18.288ZM47.4416 18V6.096H50.1776L50.4656 8.328C50.8976 7.56 51.4816 6.952 52.2176 6.504C52.9696 6.04 53.8496 5.808 54.8576 5.808V9.048H53.9936C53.3216 9.048 52.7216 9.152 52.1936 9.36C51.6656 9.568 51.2496 9.928 50.9456 10.44C50.6576 10.952 50.5136 11.664 50.5136 12.576V18H47.4416ZM61.8872 18.288C60.8312 18.288 59.9032 18.12 59.1032 17.784C58.3032 17.432 57.6632 16.952 57.1832 16.344C56.7032 15.736 56.4152 15.032 56.3192 14.232H59.4152C59.5112 14.696 59.7672 15.096 60.1832 15.432C60.6152 15.752 61.1672 15.912 61.8392 15.912C62.5112 15.912 62.9992 15.776 63.3032 15.504C63.6232 15.232 63.7832 14.92 63.7832 14.568C63.7832 14.056 63.5592 13.712 63.1112 13.536C62.6632 13.344 62.0392 13.16 61.2392 12.984C60.7272 12.872 60.2072 12.736 59.6792 12.576C59.1512 12.416 58.6632 12.216 58.2152 11.976C57.7832 11.72 57.4312 11.4 57.1592 11.016C56.8872 10.616 56.7512 10.128 56.7512 9.552C56.7512 8.496 57.1672 7.608 57.9992 6.888C58.8472 6.168 60.0312 5.808 61.5512 5.808C62.9592 5.808 64.0792 6.136 64.9112 6.792C65.7592 7.448 66.2632 8.352 66.4232 9.504H63.5192C63.3432 8.624 62.6792 8.184 61.5272 8.184C60.9512 8.184 60.5032 8.296 60.1832 8.52C59.8792 8.744 59.7272 9.024 59.7272 9.36C59.7272 9.712 59.9592 9.992 60.4232 10.2C60.8872 10.408 61.5032 10.6 62.2712 10.776C63.1032 10.968 63.8632 11.184 64.5512 11.424C65.2552 11.648 65.8152 11.992 66.2312 12.456C66.6472 12.904 66.8552 13.552 66.8552 14.4C66.8712 15.136 66.6792 15.8 66.2792 16.392C65.8792 16.984 65.3032 17.448 64.5512 17.784C63.7992 18.12 62.9112 18.288 61.8872 18.288ZM75.3706 18.288C74.1706 18.288 73.1066 18.032 72.1786 17.52C71.2506 17.008 70.5226 16.288 69.9946 15.36C69.4666 14.432 69.2026 13.36 69.2026 12.144C69.2026 10.912 69.4586 9.816 69.9706 8.856C70.4986 7.896 71.2186 7.152 72.1306 6.624C73.0586 6.08 74.1466 5.808 75.3946 5.808C76.5626 5.808 77.5946 6.064 78.4906 6.576C79.3866 7.088 80.0826 7.792 80.5786 8.688C81.0906 9.568 81.3466 10.552 81.3466 11.64C81.3466 11.816 81.3386 12 81.3226 12.192C81.3226 12.384 81.3146 12.584 81.2986 12.792H72.2506C72.3146 13.72 72.6346 14.448 73.2106 14.976C73.8026 15.504 74.5146 15.768 75.3466 15.768C75.9706 15.768 76.4906 15.632 76.9066 15.36C77.3386 15.072 77.6586 14.704 77.8666 14.256H80.9866C80.7626 15.008 80.3866 15.696 79.8586 16.32C79.3466 16.928 78.7066 17.408 77.9386 17.76C77.1866 18.112 76.3306 18.288 75.3706 18.288ZM75.3946 8.304C74.6426 8.304 73.9786 8.52 73.4026 8.952C72.8266 9.368 72.4586 10.008 72.2986 10.872H78.2266C78.1786 10.088 77.8906 9.464 77.3626 9C76.8346 8.536 76.1786 8.304 75.3946 8.304ZM84.0123 18V1.2H94.8603V3.672H87.0843V8.376H93.3723V10.8H87.0843V18H84.0123ZM97.1691 18V0.719999H100.241V18H97.1691ZM109.102 18.288C107.95 18.288 106.91 18.024 105.982 17.496C105.07 16.968 104.342 16.24 103.798 15.312C103.27 14.368 103.006 13.28 103.006 12.048C103.006 10.816 103.278 9.736 103.822 8.808C104.366 7.864 105.094 7.128 106.006 6.6C106.934 6.072 107.974 5.808 109.126 5.808C110.262 5.808 111.286 6.072 112.198 6.6C113.126 7.128 113.854 7.864 114.382 8.808C114.926 9.736 115.198 10.816 115.198 12.048C115.198 13.28 114.926 14.368 114.382 15.312C113.854 16.24 113.126 16.968 112.198 17.496C111.27 18.024 110.238 18.288 109.102 18.288ZM109.102 15.624C109.902 15.624 110.598 15.328 111.19 14.736C111.782 14.128 112.078 13.232 112.078 12.048C112.078 10.864 111.782 9.976 111.19 9.384C110.598 8.776 109.91 8.472 109.126 8.472C108.31 8.472 107.606 8.776 107.014 9.384C106.438 9.976 106.15 10.864 106.15 12.048C106.15 13.232 106.438 14.128 107.014 14.736C107.606 15.328 108.302 15.624 109.102 15.624ZM119.861 18L116.381 6.096H119.429L121.493 14.664L123.893 6.096H127.301L129.701 14.664L131.789 6.096H134.837L131.333 18H128.141L125.597 9.096L123.053 18H119.861Z" fill="#B00020"/>
</svg>
